<svg aria-hidden="true" style="position: absolute; width: 0; height: 0; overflow: hidden;" version="1.1" xmlns="http://www.w3.org/2000/svg" xmlns:xlink="http://www.w3.org/1999/xlink">
<defs>
<symbol id="icon-bin" viewBox="0 0 26 32">
<path d="M25.541 7.433h-24.647c-0.494 0-0.894-0.413-0.894-0.923s0.4-0.923 0.894-0.923h24.647c0.494 0 0.894 0.413 0.894 0.923s-0.4 0.923-0.894 0.923z"></path>
<path d="M18.434 7.352c-0.494 0-0.894-0.413-0.894-0.923v-3.263c0-0.728-0.573-1.32-1.278-1.32h-5.828c-0.705 0-1.278 0.592-1.278 1.32v3.263c0 0.51-0.4 0.923-0.894 0.923s-0.894-0.413-0.894-0.923v-3.263c0-1.746 1.375-3.166 3.066-3.166h5.828c1.691 0 3.066 1.42 3.066 3.166v3.263c0 0.509-0.4 0.923-0.894 0.923z"></path>
<path d="M4.199 6.457l-1.785 0.108 1.238 21.814 1.785-0.108-1.238-21.813z"></path>
<path d="M22.224 6.538l-1.24 21.813 1.785 0.108 1.24-21.813-1.785-0.108z"></path>
<path d="M18.362 32h-10.159c-2.573 0-4.667-2.172-4.679-4.845l-0.266-5.721c-0.023-0.509 0.358-0.942 0.85-0.967 0.495-0.021 0.912 0.369 0.936 0.878l0.267 5.787c0 1.666 1.297 3.023 2.891 3.023h10.159c1.595 0 2.891-1.357 2.891-3.023l0.001-0.037 0.221-5.742c0.019-0.509 0.432-0.907 0.928-0.886 0.493 0.020 0.877 0.45 0.858 0.959l-0.22 5.725c-0.011 2.675-2.106 4.849-4.68 4.849z"></path>
<path d="M9.305 27.631c-0.475 0-0.87-0.385-0.893-0.881l-0.718-16.022c-0.023-0.509 0.359-0.941 0.852-0.965 0.494-0.021 0.912 0.37 0.935 0.879l0.718 16.023c0.023 0.509-0.359 0.941-0.852 0.965-0.014 0-0.028 0-0.042 0z"></path>
<path d="M13.345 27.635c-0.494 0-0.894-0.413-0.894-0.923v-16.226c0-0.51 0.4-0.923 0.894-0.923s0.894 0.413 0.894 0.923v16.226c0 0.509-0.4 0.923-0.894 0.923z"></path>
<path d="M17.31 27.678c-0.014 0-0.028 0-0.042-0.001-0.493-0.024-0.875-0.455-0.852-0.964l0.718-16.155c0.023-0.509 0.439-0.904 0.934-0.879 0.493 0.024 0.875 0.455 0.852 0.964l-0.718 16.155c-0.022 0.494-0.416 0.881-0.891 0.881z"></path>
</symbol>
<symbol id="icon-chevron-down" viewBox="0 0 32 32">
<path d="M1.471 5.818c0.377 0 0.752 0.15 1.041 0.451l13.488 14.148 13.49-14.148c0.574-0.602 1.506-0.602 2.080 0s0.574 1.58 0 2.181l-15.57 16.331-15.57-16.33c-0.574-0.602-0.574-1.58 0-2.181 0.287-0.303 0.664-0.453 1.041-0.453z"></path>
</symbol>
<symbol id="icon-close" viewBox="0 0 32 32">
<path d="M2.502 28.808c-0.633 0-1.282-0.25-1.765-0.733-0.982-0.982-0.982-2.564 0-3.53l23.809-23.809c0.982-0.982 2.564-0.982 3.53 0s0.982 2.564 0 3.53l-23.809 23.809c-0.483 0.483-1.132 0.733-1.765 0.733z"></path>
<path d="M26.311 28.808c-0.633 0-1.282-0.25-1.765-0.733l-23.809-23.809c-0.982-0.982-0.982-2.564 0-3.53s2.564-0.982 3.53 0l23.809 23.809c0.982 0.982 0.982 2.564 0 3.53-0.483 0.483-1.132 0.733-1.765 0.733z"></path>
</symbol>
<symbol id="icon-favourites" viewBox="0 0 32 32">
<path d="M16.002 30.316l-0.906-0.557c-2.43-1.315-14.228-8.234-15.067-18.79l-0.003-0.072v-0.184c-0.038-0.27-0.028-0.425-0.012-0.597 0.006-0.067 0.012-0.125 0.012-0.23 0.001-4.523 3.803-8.202 8.476-8.202 3.226 0 6.074 1.782 7.5 4.404 1.425-2.622 4.274-4.404 7.5-4.404 4.665 0 8.462 3.666 8.475 8.178 0.002 0.021 0.003 0.043 0.004 0.065 0.003 0.068 0.008 0.19 0.014 0.401l0.002 0.062c0.005 0.114 0.003 0.148-0.010 0.367l-0.013 0.211c-0.841 10.56-12.641 17.477-15.070 18.793l-0.903 0.555zM1.978 10.859c0.782 9.516 11.656 15.938 14.024 17.228 2.377-1.294 13.263-7.725 14.027-17.255l0.010-0.165-0.016-0.995c-0.117-3.382-2.997-6.099-6.52-6.099-3.399 0-6.255 2.571-6.5 5.854l-0.065 0.876h-1.87l-0.065-0.876c-0.246-3.283-3.1-5.854-6.5-5.854-3.598 0-6.525 2.833-6.525 6.314 0 0.192-0.012 0.316-0.021 0.406-0.009 0.087-0.009 0.094 0.009 0.206l0.012 0.072v0.288zM31.904 9.537c0.036 0.091 0.061 0.196 0.073 0.315-0.005-0.111-0.030-0.217-0.073-0.315z"></path>
</symbol>
<symbol id="icon-for-you" viewBox="0 0 32 32">
<path d="M25.875 0h-20.593c-2.912 0-5.282 2.395-5.282 5.338v21.324c0 2.944 2.37 5.338 5.282 5.338h20.593c2.912 0 5.282-2.395 5.282-5.338v-21.324c0.001-2.943-2.369-5.338-5.282-5.338zM28.311 26.662c0 1.357-1.093 2.462-2.435 2.462h-20.594c-1.343 0-2.436-1.105-2.436-2.462v-21.324c0-1.357 1.093-2.461 2.436-2.461h20.593c1.343 0 2.435 1.104 2.435 2.461v21.324h0.001z"></path>
<path d="M23.858 17.368h-17.127c-0.683 0-1.238 0.56-1.238 1.251s0.554 1.251 1.238 1.251h17.125c0.683 0 1.238-0.56 1.238-1.251s-0.553-1.251-1.236-1.251z"></path>
<path d="M19.118 23.18h-12.387c-0.683 0-1.238 0.56-1.238 1.251s0.554 1.251 1.238 1.251h12.385c0.683 0 1.238-0.56 1.238-1.251s-0.553-1.251-1.236-1.251z"></path>
<path d="M10.173 13.726l0.129 0.083 0.129-0.083c0.731-0.413 4.387-2.635 4.643-5.997l-0.032 0.040c0.019-0.123 0.032-0.248 0.032-0.375 0-1.332-1.068-2.411-2.386-2.411-1.259 0-2.287 0.986-2.377 2.235h-0.017c-0.089-1.25-1.117-2.235-2.377-2.235-1.318 0-2.386 1.079-2.386 2.411 0 0.128 0.012 0.253 0.032 0.375l-0.032-0.040c0.257 3.362 3.911 5.585 4.643 5.997z"></path>
</symbol>
<symbol id="icon-imports" viewBox="0 0 32 32">
<path d="M13.839 22.063c-0.014-0.010-0.027-0.021-0.041-0.032 0.014 0.012 0.026 0.022 0.041 0.032z"></path>
<path d="M13.92 22.12c-0.014-0.009-0.027-0.017-0.041-0.027 0.014 0.009 0.027 0.018 0.041 0.027z"></path>
<path d="M14.545 19.871l1.022-0.9v-17.924c0-0.579-0.479-1.048-1.071-1.048s-1.071 0.469-1.071 1.048v17.838l1.119 0.986z"></path>
<path d="M14.007 22.169c-0.014-0.007-0.027-0.014-0.041-0.022 0.014 0.008 0.027 0.015 0.041 0.022z"></path>
<path d="M14.099 22.21c-0.014-0.006-0.028-0.011-0.042-0.017 0.014 0.006 0.028 0.012 0.042 0.017z"></path>
<path d="M13.88 22.093c-0.014-0.010-0.027-0.020-0.041-0.030 0.014 0.009 0.026 0.020 0.041 0.030z"></path>
<path d="M14.057 22.192c-0.017-0.008-0.034-0.015-0.050-0.024 0.017 0.009 0.033 0.016 0.050 0.024z"></path>
<path d="M13.426 21.238v-2.352l-4.053-3.569c-0.439-0.387-1.116-0.352-1.512 0.078s-0.36 1.092 0.080 1.479l5.84 5.143c0.006 0.005 0.012 0.010 0.018 0.014-0.229-0.192-0.373-0.475-0.373-0.792z"></path>
<path d="M14.099 22.21c0.012 0.005 0.023 0.010 0.035 0.013-0.002-0.001-0.004-0.002-0.006-0.003-0.010-0.004-0.019-0.007-0.029-0.010z"></path>
<path d="M13.966 22.148c-0.016-0.009-0.031-0.018-0.046-0.028 0.015 0.010 0.030 0.018 0.046 0.028z"></path>
<path d="M13.769 21.965c-0.395-0.431-0.36-1.092 0.080-1.479l0.697-0.614-1.119-0.986v2.352c0 0.317 0.144 0.6 0.372 0.792 0.014 0.011 0.027 0.022 0.041 0.032s0.027 0.020 0.041 0.030c0.014 0.010 0.027 0.018 0.041 0.027 0.016 0.009 0.030 0.019 0.046 0.028 0.014 0.008 0.027 0.015 0.041 0.022 0.017 0.009 0.033 0.016 0.050 0.024 0.014 0.006 0.028 0.012 0.042 0.017 0.010 0.004 0.019 0.007 0.029 0.010-0.132-0.057-0.256-0.143-0.359-0.255z"></path>
<path d="M15.566 21.26c0 0.019-0.002 0.038-0.003 0.057-0.001 0.016-0.003 0.032-0.005 0.048-0.002 0.018-0.005 0.035-0.008 0.052-0.003 0.016-0.006 0.033-0.010 0.049s-0.009 0.033-0.013 0.050c-0.005 0.016-0.010 0.033-0.015 0.049s-0.012 0.031-0.018 0.048c-0.006 0.016-0.013 0.032-0.019 0.048s-0.015 0.031-0.022 0.046c-0.008 0.015-0.016 0.031-0.024 0.047-0.008 0.014-0.018 0.029-0.026 0.042-0.010 0.015-0.019 0.031-0.030 0.046-0.009 0.012-0.018 0.025-0.029 0.038-0.012 0.015-0.024 0.031-0.037 0.045-0.005 0.006-0.009 0.012-0.014 0.016s-0.012 0.011-0.018 0.017c-0.015 0.015-0.030 0.031-0.047 0.046-0.012 0.010-0.023 0.021-0.035 0.031-0.016 0.013-0.031 0.025-0.048 0.037-0.013 0.010-0.026 0.020-0.040 0.029-0.017 0.011-0.033 0.021-0.051 0.031-0.014 0.009-0.027 0.017-0.041 0.025-0.019 0.010-0.039 0.020-0.059 0.029-0.013 0.006-0.024 0.012-0.037 0.017-0.026 0.010-0.053 0.020-0.079 0.030-0.007 0.002-0.014 0.006-0.020 0.008-0.102 0.032-0.21 0.049-0.323 0.049-0.034 0-0.068-0.002-0.102-0.005-0.013-0.001-0.024-0.003-0.037-0.005-0.021-0.003-0.043-0.006-0.064-0.010-0.015-0.003-0.028-0.007-0.043-0.009-0.018-0.005-0.037-0.009-0.055-0.014-0.015-0.004-0.029-0.009-0.043-0.013-0.006-0.002-0.012-0.004-0.018-0.006 0.136 0.059 0.284 0.089 0.431 0.089 0.255 0 0.511-0.089 0.715-0.269l5.84-5.143c0.44-0.387 0.475-1.049 0.080-1.479-0.395-0.431-1.073-0.465-1.512-0.078l-4.122 3.626v2.267c0 0.008-0.001 0.014-0.001 0.022z"></path>
<path d="M15.528 21.516c-0.005 0.016-0.010 0.033-0.015 0.049 0.005-0.016 0.010-0.033 0.015-0.049z"></path>
<path d="M15.107 22.098c-0.017 0.012-0.033 0.021-0.051 0.032 0.018-0.010 0.034-0.020 0.051-0.032z"></path>
<path d="M15.016 22.154c-0.019 0.010-0.039 0.020-0.059 0.029 0.020-0.009 0.040-0.018 0.059-0.029z"></path>
<path d="M14.92 22.2c-0.026 0.010-0.053 0.020-0.079 0.030 0.026-0.009 0.053-0.018 0.079-0.030z"></path>
<path d="M15.194 22.032c-0.016 0.013-0.031 0.025-0.048 0.037 0.017-0.012 0.032-0.025 0.048-0.037z"></path>
<path d="M15.344 21.877c-0.012 0.015-0.024 0.031-0.037 0.045 0.013-0.014 0.024-0.029 0.037-0.045z"></path>
<path d="M15.403 21.794c-0.010 0.015-0.019 0.030-0.030 0.046 0.010-0.015 0.020-0.030 0.030-0.046z"></path>
<path d="M15.495 21.612c-0.006 0.016-0.013 0.032-0.019 0.048 0.007-0.015 0.014-0.031 0.019-0.048z"></path>
<path d="M15.275 21.955c-0.016 0.016-0.031 0.031-0.047 0.046 0.017-0.014 0.031-0.030 0.047-0.046z"></path>
<path d="M14.497 22.286c0.113 0 0.221-0.017 0.323-0.049-0.105 0.032-0.214 0.049-0.323 0.049z"></path>
<path d="M15.564 21.316c-0.001 0.016-0.003 0.032-0.005 0.048 0.002-0.015 0.004-0.031 0.005-0.048z"></path>
<path d="M14.293 22.267c-0.015-0.003-0.028-0.007-0.043-0.009 0.014 0.003 0.028 0.007 0.043 0.009z"></path>
<path d="M15.213 20.459c0.24 0.212 0.359 0.507 0.353 0.8 0-0.008 0.001-0.014 0.001-0.022v-2.267l-1.022 0.9 0.668 0.589z"></path>
<path d="M15.551 21.417c-0.003 0.016-0.006 0.033-0.010 0.050 0.004-0.016 0.007-0.033 0.010-0.050z"></path>
<path d="M14.195 22.243c-0.015-0.004-0.029-0.009-0.043-0.013 0.014 0.004 0.028 0.009 0.043 0.013z"></path>
<path d="M14.394 22.281c-0.013-0.001-0.024-0.003-0.037-0.005 0.013 0.001 0.024 0.003 0.037 0.005z"></path>
<path d="M15.454 21.706c-0.008 0.015-0.016 0.031-0.024 0.047 0.009-0.015 0.017-0.031 0.024-0.047z"></path>
<path d="M15.476 21.661c-0.007 0.015-0.015 0.031-0.022 0.046 0.008-0.016 0.016-0.030 0.022-0.046z"></path>
<path d="M15.559 21.364c-0.002 0.018-0.005 0.035-0.008 0.052 0.003-0.017 0.006-0.034 0.008-0.052z"></path>
<path d="M15.541 21.467c-0.004 0.017-0.009 0.033-0.013 0.049 0.004-0.017 0.009-0.033 0.013-0.049z"></path>
<path d="M15.566 21.26c0 0.019-0.002 0.038-0.003 0.057 0.001-0.020 0.002-0.039 0.003-0.057z"></path>
<path d="M15.514 21.566c-0.006 0.016-0.012 0.031-0.018 0.048 0.006-0.016 0.012-0.032 0.018-0.048z"></path>
<path d="M15.056 22.13c-0.014 0.008-0.027 0.017-0.041 0.025 0.014-0.008 0.027-0.016 0.041-0.025z"></path>
<path d="M14.497 22.286c-0.034 0-0.069-0.002-0.102-0.005 0.033 0.003 0.067 0.005 0.102 0.005z"></path>
<path d="M14.358 22.276c-0.021-0.003-0.043-0.006-0.064-0.010 0.021 0.004 0.043 0.007 0.064 0.010z"></path>
<path d="M14.251 22.257c-0.018-0.005-0.037-0.009-0.055-0.014 0.018 0.005 0.037 0.009 0.055 0.014z"></path>
<path d="M14.84 22.23c-0.007 0.002-0.014 0.006-0.020 0.008 0.007-0.002 0.014-0.006 0.020-0.008z"></path>
<path d="M14.128 22.221c0.002 0.001 0.004 0.002 0.006 0.003 0.006 0.002 0.012 0.004 0.018 0.006-0.008-0.003-0.016-0.006-0.023-0.009z"></path>
<path d="M14.956 22.183c-0.013 0.006-0.024 0.012-0.037 0.017 0.013-0.005 0.025-0.011 0.037-0.017z"></path>
<path d="M15.429 21.752c-0.008 0.014-0.018 0.029-0.026 0.042 0.009-0.014 0.018-0.028 0.026-0.042z"></path>
<path d="M15.293 21.939c0.005-0.006 0.009-0.012 0.014-0.016-0.010 0.011-0.020 0.022-0.031 0.033 0.006-0.007 0.012-0.012 0.018-0.017z"></path>
<path d="M15.372 21.84c-0.009 0.012-0.018 0.026-0.029 0.038 0.011-0.013 0.020-0.026 0.029-0.038z"></path>
<path d="M15.146 22.070c-0.013 0.009-0.026 0.020-0.040 0.029 0.015-0.009 0.027-0.019 0.040-0.029z"></path>
<path d="M15.229 22.001c-0.012 0.010-0.023 0.021-0.035 0.031 0.012-0.010 0.023-0.021 0.035-0.031z"></path>
<path d="M13.769 21.965c0.103 0.112 0.227 0.198 0.359 0.256 0.008 0.003 0.016 0.006 0.023 0.009 0.015 0.005 0.028 0.009 0.043 0.013 0.018 0.006 0.037 0.009 0.055 0.014 0.015 0.003 0.028 0.007 0.043 0.009 0.021 0.004 0.043 0.007 0.064 0.010 0.013 0.002 0.024 0.004 0.037 0.005 0.034 0.003 0.068 0.005 0.103 0.005 0.109 0 0.218-0.016 0.323-0.049 0.007-0.002 0.014-0.005 0.020-0.008 0.026-0.009 0.054-0.018 0.079-0.030 0.013-0.006 0.024-0.012 0.037-0.017 0.019-0.009 0.040-0.018 0.059-0.029 0.014-0.008 0.027-0.016 0.041-0.025 0.017-0.010 0.034-0.020 0.051-0.031 0.014-0.009 0.026-0.019 0.040-0.029 0.016-0.012 0.032-0.024 0.048-0.037 0.012-0.010 0.023-0.021 0.035-0.032 0.016-0.014 0.031-0.029 0.047-0.046 0.011-0.010 0.020-0.022 0.031-0.033 0.013-0.014 0.025-0.030 0.037-0.045 0.010-0.012 0.019-0.025 0.029-0.038 0.011-0.015 0.020-0.030 0.030-0.046 0.009-0.014 0.018-0.028 0.026-0.042 0.009-0.015 0.017-0.031 0.024-0.047s0.016-0.030 0.022-0.046 0.014-0.031 0.019-0.048c0.006-0.015 0.013-0.032 0.018-0.048s0.010-0.033 0.015-0.049c0.005-0.016 0.009-0.032 0.013-0.050s0.007-0.033 0.010-0.049c0.003-0.017 0.006-0.035 0.008-0.052s0.003-0.031 0.005-0.048c0.001-0.019 0.003-0.038 0.003-0.057 0.006-0.293-0.113-0.588-0.353-0.8l-0.668-0.588-0.697 0.614c-0.44 0.388-0.475 1.050-0.080 1.48z"></path>
<path d="M22.979 8.095h-3.502v2.095h3.502c1.387 0 2.516 1.105 2.516 2.462v14.79c0 1.357-1.129 2.462-2.516 2.462h-16.867c-1.387 0-2.516-1.105-2.516-2.462v-14.79c0-1.357 1.129-2.462 2.516-2.462h3.301v-2.095h-3.301c-2.568 0-4.657 2.045-4.657 4.557v14.79c0 2.512 2.090 4.557 4.657 4.557h16.867c2.568 0 4.657-2.045 4.657-4.557v-14.79c0-2.512-2.090-4.557-4.657-4.557z"></path>
</symbol>
<symbol id="icon-library" viewBox="0 0 32 32">
<path d="M15.46 18.712c1.468 0 2.658-1.193 2.658-2.664s-1.19-2.664-2.658-2.664c-1.468 0-2.658 1.193-2.658 2.664s1.19 2.664 2.658 2.664z"></path>
<path d="M28.442 9.216h-3.321v-2.542c0-1.762-1.431-3.196-3.188-3.196h-18.745c-1.757 0-3.188 1.434-3.188 3.196v12.914c0 1.762 1.431 3.196 3.188 3.196h3.321v2.543c0 1.762 1.431 3.196 3.188 3.196h18.746c1.757 0 3.188-1.434 3.188-3.196v-12.915c0-1.762-1.431-3.196-3.188-3.196zM6.509 12.411v8.604h-3.321c-0.785 0-1.425-0.64-1.425-1.429v-12.912c0-0.788 0.639-1.429 1.425-1.429h18.745c0.785 0 1.425 0.64 1.425 1.429v2.543h-13.662c-1.757-0.001-3.188 1.433-3.188 3.194zM29.868 22.844l-5.019-5.009c-0.324-0.425-0.834-0.7-1.409-0.7-0.505 0-0.959 0.212-1.282 0.55h-0.003l-5.188 4.95c-0.142 0.129-0.217 0.201-0.281 0.239-0.056 0.011-0.114 0.016-0.172 0.016-0.091 0-0.178-0.014-0.26-0.038-0.057-0.052-0.146-0.111-0.271-0.233l-0.3-0.287-2.020-1.915c-0.195-0.265-0.508-0.436-0.862-0.436s-0.666 0.173-0.862 0.436h-0.001l-3.665 3.288v-11.296c0-0.787 0.639-1.429 1.425-1.429h18.746c0.785 0 1.425 0.64 1.425 1.429v10.433z"></path>
</symbol>
<symbol id="icon-live-photos" viewBox="0 0 32 32">
<path d="M15.867 27.511c-6.392 0-11.591-5.224-11.591-11.647s5.199-11.647 11.591-11.647c6.392 0 11.591 5.224 11.591 11.647s-5.201 11.647-11.591 11.647zM15.867 5.413c-5.736 0-10.402 4.689-10.402 10.452s4.667 10.452 10.402 10.452c5.736 0 10.402-4.689 10.402-10.452s-4.667-10.452-10.402-10.452z"></path>
<path d="M15.999 21.486c-3.012 0-5.462-2.462-5.462-5.488s2.45-5.488 5.462-5.488c3.012 0 5.462 2.462 5.462 5.488s-2.45 5.488-5.462 5.488zM15.999 12.101c-2.139 0-3.877 1.748-3.877 3.895 0 2.149 1.74 3.896 3.877 3.896s3.877-1.748 3.877-3.896-1.74-3.895-3.877-3.895z"></path>
<path d="M13.435 31.728c0.472 0 0.855-0.385 0.855-0.859s-0.383-0.859-0.855-0.859-0.855 0.384-0.855 0.859c0 0.474 0.383 0.859 0.855 0.859z"></path>
<path d="M15.867 32c0.472 0 0.855-0.385 0.855-0.859s-0.383-0.859-0.855-0.859c-0.472 0-0.855 0.384-0.855 0.859s0.383 0.859 0.855 0.859z"></path>
<path d="M18.423 31.728c0.472 0 0.855-0.385 0.855-0.859s-0.383-0.859-0.855-0.859-0.855 0.384-0.855 0.859c0 0.474 0.383 0.859 0.855 0.859z"></path>
<path d="M21.167 31.141c0.472 0 0.855-0.384 0.855-0.859s-0.383-0.859-0.855-0.859-0.855 0.384-0.855 0.859c0 0.474 0.383 0.859 0.855 0.859z"></path>
<path d="M23.415 30.012c0.472 0 0.855-0.384 0.855-0.859s-0.383-0.859-0.855-0.859-0.855 0.384-0.855 0.859c0 0.474 0.383 0.859 0.855 0.859z"></path>
<path d="M25.663 28.632c0.472 0 0.855-0.384 0.855-0.859s-0.383-0.859-0.855-0.859c-0.472 0-0.855 0.384-0.855 0.859s0.383 0.859 0.855 0.859z"></path>
<path d="M27.424 26.71c0.472 0 0.855-0.384 0.855-0.859s-0.383-0.859-0.855-0.859-0.855 0.385-0.855 0.859c0 0.474 0.383 0.859 0.855 0.859z"></path>
<path d="M29.077 24.354c0.472 0 0.855-0.384 0.855-0.859s-0.383-0.859-0.855-0.859c-0.472 0-0.855 0.384-0.855 0.859s0.383 0.859 0.855 0.859z"></path>
<path d="M30.155 22.146c0.472 0 0.855-0.384 0.855-0.859s-0.383-0.859-0.855-0.859c-0.472 0-0.855 0.384-0.855 0.859s0.383 0.859 0.855 0.859z"></path>
<path d="M30.766 19.638c0.472 0 0.855-0.385 0.855-0.859s-0.383-0.859-0.855-0.859-0.855 0.384-0.855 0.859c0 0.474 0.383 0.859 0.855 0.859z"></path>
<path d="M31.145 16.846c0.472 0 0.855-0.385 0.855-0.859s-0.383-0.859-0.855-0.859-0.855 0.384-0.855 0.859c0 0.474 0.383 0.859 0.855 0.859z"></path>
<path d="M30.849 14.337c0.472 0 0.855-0.384 0.855-0.859s-0.383-0.859-0.855-0.859c-0.472 0-0.855 0.384-0.855 0.859s0.383 0.859 0.855 0.859z"></path>
<path d="M30.317 11.744c0.472 0 0.855-0.384 0.855-0.859s-0.383-0.859-0.855-0.859c-0.472 0-0.855 0.384-0.855 0.859s0.383 0.859 0.855 0.859z"></path>
<path d="M29.115 9.429c0.472 0 0.855-0.384 0.855-0.859s-0.383-0.859-0.855-0.859c-0.472 0-0.855 0.384-0.855 0.859s0.383 0.859 0.855 0.859z"></path>
<path d="M8.395 3.755c0.472 0 0.855-0.384 0.855-0.859s-0.383-0.859-0.855-0.859c-0.472 0-0.855 0.384-0.855 0.859s0.383 0.859 0.855 0.859z"></path>
<path d="M10.778 2.534c0.472 0 0.855-0.384 0.855-0.859s-0.383-0.859-0.855-0.859c-0.472 0-0.855 0.384-0.855 0.859s0.383 0.859 0.855 0.859z"></path>
<path d="M13.116 1.717c0.472 0 0.855-0.384 0.855-0.859s-0.383-0.859-0.855-0.859c-0.472 0-0.855 0.384-0.855 0.859s0.383 0.859 0.855 0.859z"></path>
<path d="M15.999 1.717c0.472 0 0.855-0.384 0.855-0.859s-0.383-0.859-0.855-0.859c-0.472 0-0.855 0.384-0.855 0.859s0.383 0.859 0.855 0.859z"></path>
<path d="M18.423 1.717c0.472 0 0.855-0.384 0.855-0.859s-0.383-0.859-0.855-0.859c-0.472 0-0.855 0.384-0.855 0.859s0.383 0.859 0.855 0.859z"></path>
<path d="M21.167 2.534c0.472 0 0.855-0.384 0.855-0.859s-0.383-0.859-0.855-0.859c-0.472 0-0.855 0.384-0.855 0.859s0.383 0.859 0.855 0.859z"></path>
<path d="M23.415 3.618c0.472 0 0.855-0.384 0.855-0.859s-0.383-0.859-0.855-0.859c-0.472 0-0.855 0.384-0.855 0.859s0.383 0.859 0.855 0.859z"></path>
<path d="M25.663 5.201c0.472 0 0.855-0.384 0.855-0.859s-0.383-0.859-0.855-0.859c-0.472 0-0.855 0.384-0.855 0.859s0.383 0.859 0.855 0.859z"></path>
<path d="M27.424 7.019c0.472 0 0.855-0.384 0.855-0.859s-0.383-0.859-0.855-0.859c-0.472 0-0.855 0.384-0.855 0.859s0.383 0.859 0.855 0.859z"></path>
<path d="M6.327 5.201c0.472 0 0.855-0.384 0.855-0.859s-0.383-0.859-0.855-0.859c-0.472 0-0.855 0.384-0.855 0.859s0.383 0.859 0.855 0.859z"></path>
<path d="M4.367 7.019c0.472 0 0.855-0.384 0.855-0.859s-0.383-0.859-0.855-0.859c-0.472 0-0.855 0.384-0.855 0.859s0.383 0.859 0.855 0.859z"></path>
<path d="M2.855 9.198c0.472 0 0.855-0.384 0.855-0.859s-0.383-0.859-0.855-0.859c-0.472 0-0.855 0.384-0.855 0.859s0.383 0.859 0.855 0.859z"></path>
<path d="M1.668 11.624c0.472 0 0.855-0.384 0.855-0.859s-0.383-0.859-0.855-0.859c-0.472 0-0.855 0.384-0.855 0.859s0.383 0.859 0.855 0.859z"></path>
<path d="M1.034 14.247c0.472 0 0.855-0.384 0.855-0.859s-0.383-0.859-0.855-0.859c-0.472 0-0.855 0.384-0.855 0.859s0.383 0.859 0.855 0.859z"></path>
<path d="M0.855 16.718c0.472 0 0.855-0.384 0.855-0.859s-0.383-0.859-0.855-0.859-0.855 0.384-0.855 0.859c0 0.474 0.383 0.859 0.855 0.859z"></path>
<path d="M1.044 19.691c0.472 0 0.855-0.385 0.855-0.859s-0.383-0.859-0.855-0.859-0.855 0.384-0.855 0.859c0 0.474 0.383 0.859 0.855 0.859z"></path>
<path d="M1.622 22.080c0.472 0 0.855-0.384 0.855-0.859s-0.383-0.859-0.855-0.859-0.855 0.384-0.855 0.859c0 0.474 0.383 0.859 0.855 0.859z"></path>
<path d="M2.752 24.401c0.472 0 0.855-0.385 0.855-0.859s-0.383-0.859-0.855-0.859-0.855 0.384-0.855 0.859c0 0.474 0.383 0.859 0.855 0.859z"></path>
<path d="M4.24 26.789c0.472 0 0.855-0.384 0.855-0.859s-0.383-0.859-0.855-0.859c-0.472 0-0.855 0.384-0.855 0.859s0.383 0.859 0.855 0.859z"></path>
<path d="M6.066 28.525c0.472 0 0.855-0.385 0.855-0.859s-0.383-0.859-0.855-0.859-0.855 0.384-0.855 0.859c0 0.474 0.383 0.859 0.855 0.859z"></path>
<path d="M8.127 30.175c0.472 0 0.855-0.384 0.855-0.859s-0.383-0.859-0.855-0.859-0.855 0.384-0.855 0.859c0 0.474 0.383 0.859 0.855 0.859z"></path>
<path d="M10.527 31.178c0.472 0 0.855-0.384 0.855-0.859s-0.383-0.859-0.855-0.859-0.855 0.384-0.855 0.859c0 0.474 0.383 0.859 0.855 0.859z"></path>
</symbol>
<symbol id="icon-nav-icon" viewBox="0 0 32 32">
<path d="M28.996 2.909h-25.993c-1.656 0-3.004 1.414-3.004 3.151v19.879c0 1.737 1.348 3.151 3.004 3.151h25.993c1.656 0 3.004-1.414 3.004-3.151v-19.879c0-1.737-1.348-3.151-3.004-3.151zM1.787 25.939v-19.879c0-0.705 0.546-1.277 1.217-1.277h7.036v22.432h-7.036c-0.67 0-1.217-0.572-1.217-1.276zM30.213 25.939c0 0.705-0.547 1.276-1.217 1.276h-17.168v-22.432h17.168c0.672 0 1.217 0.573 1.217 1.277v19.879z"></path>
<path d="M4.091 10.518h3.498c0.493 0 0.893-0.42 0.893-0.937s-0.401-0.937-0.893-0.937h-3.498c-0.493 0-0.893 0.42-0.893 0.937s0.399 0.937 0.893 0.937z"></path>
<path d="M4.091 14.292h3.498c0.493 0 0.893-0.42 0.893-0.937s-0.401-0.937-0.893-0.937h-3.498c-0.493 0-0.893 0.42-0.893 0.937s0.399 0.937 0.893 0.937z"></path>
<path d="M7.633 15.987h-3.498c-0.493 0-0.893 0.42-0.893 0.937s0.401 0.938 0.893 0.938h3.498c0.493 0 0.893-0.42 0.893-0.938s-0.401-0.937-0.893-0.937z"></path>
</symbol>
<symbol id="icon-people" viewBox="0 0 32 32">
<path d="M16 18.063c3.039 0 5.503-2.464 5.503-5.503s-2.464-5.503-5.503-5.503c-3.039 0-5.503 2.464-5.503 5.503s2.464 5.503 5.503 5.503z"></path>
<path d="M16 0c-8.823 0-16 7.177-16 16 0 4.273 1.683 8.159 4.421 11.031 0.433-0.567 0.916-1.102 1.443-1.6-2.304-2.475-3.716-5.791-3.716-9.431 0-7.638 6.214-13.852 13.852-13.852s13.852 6.214 13.852 13.852c0 3.434-1.256 6.579-3.333 9.003 0.549 0.472 1.057 0.984 1.516 1.528 2.467-2.817 3.965-6.502 3.965-10.531 0-8.823-7.177-16-16-16z"></path>
<path d="M16 29.852c4.204 0 7.976-1.884 10.519-4.85-2.609-2.247-6.167-3.632-10.090-3.632-4.166 0-7.921 1.561-10.565 4.060 2.531 2.718 6.138 4.421 10.136 4.421z"></path>
<path d="M26.519 25.003c-2.543 2.966-6.315 4.849-10.519 4.849-3.998 0-7.605-1.703-10.136-4.421-0.527 0.498-1.010 1.033-1.443 1.6 2.917 3.059 7.029 4.969 11.579 4.969 4.794 0 9.101-2.12 12.036-5.47-0.46-0.544-0.968-1.054-1.516-1.527z"></path>
</symbol>
<symbol id="icon-places" viewBox="0 0 26 32">
<path d="M12.349 11.297v-1.365c0-0.571 0.453-1.033 1.012-1.033s1.012 0.463 1.012 1.033v1.365c2.596-0.487 4.566-2.808 4.566-5.602 0-3.146-2.496-5.697-5.577-5.697-3.080 0-5.577 2.55-5.577 5.697 0.001 2.793 1.969 5.116 4.566 5.602zM11.869 2.272c0.988 0 1.788 0.819 1.788 1.827 0 1.009-0.801 1.827-1.788 1.827-0.988 0-1.788-0.819-1.788-1.827-0.001-1.009 0.8-1.827 1.788-1.827z"></path>
<path d="M12.349 11.297v14.542c0 0.571 0.453 1.033 1.012 1.033s1.012-0.463 1.012-1.033v-14.542c-0.328 0.062-0.667 0.095-1.012 0.095s-0.683-0.033-1.012-0.095z"></path>
<path d="M13.361 8.899c-0.559 0-1.012 0.463-1.012 1.033v1.365c0.328 0.062 0.665 0.095 1.012 0.095s0.683-0.033 1.012-0.095v-1.365c0-0.571-0.453-1.033-1.012-1.033z"></path>
<path d="M17.415 17.957c-0.158-0.025-0.313-0.009-0.457 0.037v1.969c0.048 0.016 0.099 0.029 0.151 0.037 4.795 0.752 7.304 2.644 7.304 4.125 0 0.991-1.109 2.078-2.968 2.908-2.18 0.974-5.102 1.511-8.225 1.511s-6.045-0.536-8.225-1.511c-1.86-0.83-2.97-1.918-2.97-2.909 0-1.522 2.699-3.489 7.703-4.183v-2.083c-0.018 0.001-0.035 0.002-0.053 0.005-5.876 0.764-9.673 3.222-9.673 6.261 0 1.892 1.485 3.597 4.181 4.803 2.43 1.086 5.639 1.683 9.037 1.683s6.606-0.598 9.036-1.683c2.696-1.204 4.181-2.909 4.181-4.803 0-2.886-3.541-5.308-9.020-6.166z"></path>
</symbol>
<symbol id="icon-recents" viewBox="0 0 32 32">
<path d="M16 32c-8.822 0-16-7.178-16-16s7.178-16 16-16c8.822 0 16 7.178 16 16s-7.178 16-16 16zM16 1.885c-7.783 0-14.115 6.332-14.115 14.115s6.332 14.115 14.115 14.115c7.783 0 14.115-6.332 14.115-14.115s-6.332-14.115-14.115-14.115z"></path>
<path d="M16 17.566h-8.861c-0.521 0-0.943-0.421-0.943-0.943s0.421-0.943 0.943-0.943h8.861c0.521 0 0.942 0.421 0.942 0.943s-0.421 0.943-0.942 0.943z"></path>
<path d="M17.684 17.566c-0.521 0-0.943-0.421-0.943-0.943v-11.345c0-0.521 0.421-0.943 0.943-0.943s0.942 0.421 0.942 0.943v11.345c0 0.52-0.421 0.943-0.942 0.943z"></path>
</symbol>
<symbol id="icon-screenshots" viewBox="0 0 32 32">
<path d="M1.252 11.826c-0.691 0-1.252-0.561-1.252-1.252v-4.589c0-3.3 2.685-5.985 5.985-5.985h4.171c0.691 0 1.252 0.561 1.252 1.252s-0.561 1.252-1.252 1.252h-4.171c-1.92 0-3.481 1.561-3.481 3.481v4.589c0 0.691-0.561 1.252-1.252 1.252z"></path>
<path d="M30.748 11.617c-0.692 0-1.252-0.561-1.252-1.252v-4.171c0-1.919-1.561-3.481-3.481-3.481h-4.588c-0.692 0-1.252-0.561-1.252-1.252s0.561-1.252 1.252-1.252h4.588c3.3 0 5.985 2.685 5.985 5.985v4.171c0 0.691-0.561 1.252-1.252 1.252z"></path>
<path d="M25.945 31.861h-4.171c-0.692 0-1.252-0.561-1.252-1.252s0.561-1.252 1.252-1.252h4.171c1.919 0 3.481-1.561 3.481-3.481v-4.589c0-0.691 0.561-1.252 1.252-1.252s1.252 0.561 1.252 1.252v4.589c0 3.3-2.685 5.985-5.985 5.985z"></path>
<path d="M10.157 32h-4.171c-3.3 0-5.985-2.685-5.985-5.985v-4.588c0-0.692 0.561-1.252 1.252-1.252s1.252 0.561 1.252 1.252v4.588c0 1.92 1.561 3.481 3.481 3.481h4.171c0.691 0 1.252 0.561 1.252 1.252s-0.561 1.252-1.252 1.252z"></path>
<path fill="#3578f6" style="fill: var(--color3, #3578f6)" d="M22.554 23.339h-12.803c-1.842 0-3.341-1.499-3.341-3.341v-7.42c0-1.842 1.498-3.341 3.341-3.341h12.803c1.842 0 3.34 1.498 3.34 3.341v7.42c-0.001 1.842-1.5 3.341-3.34 3.341z"></path>
<path fill="#3578f6" style="fill: var(--color3, #3578f6)" d="M11.57 9.814c0 0 0.995-2.699 3.552-2.605l1.848-0.003c0 0 2.087-0.38 3.649 2.746z"></path>
<path fill="#fff" style="fill: var(--color4, #fff)" d="M16.014 21.183c-2.675 0-4.853-2.177-4.853-4.853s2.177-4.853 4.853-4.853c2.676 0 4.853 2.177 4.853 4.853s-2.177 4.853-4.853 4.853zM16.014 12.729c-1.985 0-3.601 1.615-3.601 3.601s1.615 3.601 3.601 3.601c1.985 0 3.601-1.615 3.601-3.601s-1.615-3.601-3.601-3.601z"></path>
<path fill="#fff" style="fill: var(--color4, #fff)" d="M22.415 13.887c0.546 0 0.989-0.443 0.989-0.989s-0.443-0.989-0.989-0.989c-0.546 0-0.989 0.443-0.989 0.989s0.443 0.989 0.989 0.989z"></path>
</symbol>
<symbol id="icon-search" viewBox="0 0 32 32">
<path d="M12.193 24.386c-6.723 0-12.193-5.47-12.193-12.193s5.47-12.193 12.193-12.193c6.723 0 12.193 5.47 12.193 12.193s-5.47 12.193-12.193 12.193zM12.193 2.191c-5.515 0-10.002 4.486-10.002 10.002s4.486 10.002 10.002 10.002c5.515 0 10.002-4.486 10.002-10.002s-4.486-10.002-10.002-10.002z"></path>
<path d="M29.933 32c-0.436 0-0.873-0.167-1.205-0.499l-9.255-9.255c-0.666-0.666-0.666-1.745 0-2.411s1.745-0.666 2.411 0l9.255 9.255c0.666 0.666 0.666 1.745 0 2.411-0.332 0.334-0.768 0.499-1.205 0.499z"></path>
</symbol>
<symbol id="icon-selfies" viewBox="0 0 32 32">
<path d="M26.794 32h-21.588c-2.871 0-5.206-2.385-5.206-5.317v-21.366c0-2.932 2.335-5.317 5.206-5.317h21.589c2.87 0 5.205 2.385 5.205 5.317v21.367c0 2.931-2.335 5.316-5.206 5.316zM5.206 1.594c-2.010 0-3.645 1.669-3.645 3.723v21.367c0 2.052 1.635 3.722 3.645 3.722h21.589c2.009 0 3.645-1.67 3.645-3.723v-21.366c-0.001-2.053-1.636-3.723-3.646-3.723h-21.588z"></path>
<path d="M3.54 29.186c1.908-5.131 6.767-8.778 12.46-8.778s10.552 3.646 12.46 8.778z"></path>
<path d="M16 18.872c3.533 0 6.398-2.848 6.398-6.361s-2.864-6.361-6.398-6.361c-3.533 0-6.398 2.848-6.398 6.361s2.864 6.361 6.398 6.361z"></path>
</symbol>
<symbol id="icon-slo-mo" viewBox="0 0 31 32">
<path d="M11.119 8.868c-0.251 0-0.498-0.129-0.645-0.367l-2.951-4.791c-0.228-0.371-0.126-0.865 0.23-1.103s0.829-0.131 1.057 0.24l2.951 4.791c0.228 0.371 0.126 0.865-0.23 1.103-0.127 0.087-0.271 0.128-0.412 0.128z"></path>
<path d="M15.529 7.293c-0.423 0-0.765-0.357-0.765-0.799v-5.696c0-0.442 0.342-0.799 0.765-0.799s0.765 0.357 0.765 0.799v5.696c0 0.441-0.342 0.799-0.765 0.799z"></path>
<path d="M20.151 8.568c-0.145 0-0.293-0.043-0.424-0.135-0.352-0.244-0.447-0.74-0.212-1.108l3.028-4.739c0.235-0.367 0.709-0.465 1.061-0.221s0.447 0.74 0.212 1.108l-3.028 4.739c-0.148 0.232-0.39 0.356-0.637 0.356z"></path>
<path d="M23.515 12.162c-0.265 0-0.521-0.144-0.663-0.399-0.211-0.382-0.086-0.87 0.28-1.091l4.726-2.848c0.366-0.22 0.834-0.090 1.045 0.292s0.086 0.87-0.28 1.091l-4.726 2.848c-0.12 0.073-0.253 0.107-0.381 0.107z"></path>
<path d="M29.844 17.125h-5.457c-0.423 0-0.765-0.357-0.765-0.799s0.342-0.799 0.765-0.799h5.457c0.423 0 0.765 0.357 0.765 0.799s-0.342 0.799-0.765 0.799z"></path>
<path d="M28.020 24.525c-0.13 0-0.261-0.034-0.381-0.107l-4.726-2.847c-0.366-0.22-0.492-0.708-0.28-1.091 0.211-0.382 0.679-0.513 1.045-0.292l4.726 2.847c0.366 0.22 0.492 0.708 0.28 1.091-0.141 0.257-0.399 0.399-0.663 0.399z"></path>
<path d="M22.811 30.049c-0.265 0-0.521-0.144-0.663-0.399l-2.728-4.933c-0.211-0.382-0.086-0.87 0.28-1.091s0.834-0.090 1.045 0.292l2.728 4.933c0.211 0.382 0.086 0.871-0.28 1.091-0.12 0.073-0.251 0.107-0.381 0.107z"></path>
<path d="M15.529 32c-0.423 0-0.765-0.357-0.765-0.799v-5.696c0-0.441 0.342-0.799 0.765-0.799s0.765 0.357 0.765 0.799v5.696c0 0.441-0.342 0.799-0.765 0.799z"></path>
<path d="M8.557 30.049c-0.13 0-0.261-0.034-0.381-0.107-0.366-0.22-0.492-0.708-0.28-1.091l2.728-4.933c0.211-0.382 0.679-0.513 1.045-0.292 0.366 0.22 0.492 0.708 0.28 1.091l-2.728 4.933c-0.142 0.256-0.399 0.399-0.663 0.399z"></path>
<path d="M3.276 24.525c-0.264 0-0.521-0.144-0.663-0.399-0.211-0.382-0.086-0.87 0.28-1.091l4.726-2.847c0.366-0.22 0.834-0.090 1.045 0.292s0.086 0.87-0.28 1.091l-4.726 2.847c-0.119 0.073-0.251 0.107-0.381 0.107z"></path>
<path d="M6.223 17.131h-5.457c-0.423 0-0.765-0.357-0.765-0.799s0.342-0.798 0.765-0.798h5.457c0.423 0 0.765 0.357 0.765 0.798s-0.342 0.799-0.765 0.799z"></path>
<path d="M7.642 12.246c-0.13 0-0.261-0.034-0.381-0.107l-4.726-2.849c-0.366-0.22-0.492-0.708-0.28-1.091 0.211-0.382 0.679-0.512 1.045-0.292l4.726 2.848c0.366 0.22 0.492 0.708 0.28 1.091-0.142 0.257-0.399 0.4-0.663 0.4z"></path>
</symbol>
<symbol id="icon-videos" viewBox="0 0 32 32">
<path d="M18.551 27.13h-13.283c-2.905 0-5.268-2.356-5.268-5.253v-11.754c0-2.898 2.363-5.254 5.268-5.254h13.284c2.904 0 5.268 2.356 5.268 5.254v11.754c-0.001 2.896-2.365 5.253-5.269 5.253zM5.268 6.445c-2.034 0-3.688 1.65-3.688 3.678v11.754c0 2.028 1.654 3.677 3.688 3.677h13.284c2.033 0 3.688-1.65 3.688-3.677v-11.754c0-2.028-1.654-3.678-3.688-3.678h-13.284z"></path>
<path d="M30.98 25.349c-0.178 0-0.354-0.060-0.498-0.176l-7.951-6.435c-0.185-0.15-0.292-0.375-0.292-0.612v-4.195c0-0.24 0.11-0.467 0.298-0.617l8.181-6.493c0.239-0.189 0.565-0.225 0.839-0.091s0.446 0.413 0.442 0.718l-0.23 17.123c-0.005 0.302-0.181 0.575-0.455 0.703-0.107 0.050-0.222 0.074-0.335 0.074zM23.819 17.75l6.393 5.175 0.186-13.836-6.579 5.221v3.44z"></path>
</symbol>
<symbol id="icon-open-sidebar" viewBox="0 0 24 24">
<path d="M3.984 5.016v13.969h8.016v2.016h-8.016q-0.797 0-1.383-0.609t-0.586-1.406v-13.969q0-0.797 0.586-1.406t1.383-0.609h8.016v2.016h-8.016zM17.016 6.984l4.969 5.016-4.969 5.016-1.406-1.453 2.578-2.578h-10.172v-1.969h10.172l-2.578-2.625z"></path>
</symbol>
<symbol id="icon-three-dot-hr" viewBox="0 0 20 20">
<path d="M10.001 7.8c-1.215 0-2.201 0.985-2.201 2.2s0.986 2.2 2.201 2.2c1.215 0 2.199-0.985 2.199-2.2s-0.984-2.2-2.199-2.2zM3.001 7.8c-1.215 0-2.201 0.985-2.201 2.2s0.986 2.2 2.201 2.2c1.215 0 2.199-0.986 2.199-2.2s-0.984-2.2-2.199-2.2zM17.001 7.8c-1.215 0-2.201 0.985-2.201 2.2s0.986 2.2 2.201 2.2c1.215 0 2.199-0.985 2.199-2.2s-0.984-2.2-2.199-2.2z"></path>
</symbol>
</defs>
</svg>
